<svg width="26" height="34" viewBox="0 0 26 34" fill="none" xmlns="http://www.w3.org/2000/svg">
<path d="M2.98828 34H22.9102C24.558 34 25.8984 32.6595 25.8984 31.0117V9.96094H18.9258C17.278 9.96094 15.9375 8.62046 15.9375 6.97266V0H2.98828C1.34048 0 0 1.34048 0 2.98828V31.0117C0 32.6595 1.34048 34 2.98828 34ZM6.97266 14.0117H18.9258C19.4764 14.0117 19.9219 14.4572 19.9219 15.0078C19.9219 15.5584 19.4764 16.0039 18.9258 16.0039H6.97266C6.42208 16.0039 5.97656 15.5584 5.97656 15.0078C5.97656 14.4572 6.42208 14.0117 6.97266 14.0117ZM6.97266 17.9961H18.9258C19.4764 17.9961 19.9219 18.4416 19.9219 18.9922C19.9219 19.5428 19.4764 19.9883 18.9258 19.9883H6.97266C6.42208 19.9883 5.97656 19.5428 5.97656 18.9922C5.97656 18.4416 6.42208 17.9961 6.97266 17.9961ZM6.97266 21.9805H18.9258C19.4764 21.9805 19.9219 22.426 19.9219 22.9766C19.9219 23.5271 19.4764 23.9727 18.9258 23.9727H6.97266C6.42208 23.9727 5.97656 23.5271 5.97656 22.9766C5.97656 22.426 6.42208 21.9805 6.97266 21.9805ZM6.97266 25.9648H14.9414C15.492 25.9648 15.9375 26.4104 15.9375 26.9609C15.9375 27.5115 15.492 27.957 14.9414 27.957H6.97266C6.42208 27.957 5.97656 27.5115 5.97656 26.9609C5.97656 26.4104 6.42208 25.9648 6.97266 25.9648Z" fill="#F4674A"/>
<path d="M18.9258 7.96909H25.3148L17.9297 0.583984V6.973C17.9297 7.52257 18.3762 7.96909 18.9258 7.96909Z" fill="#F4674A"/>
</svg>
