<svg width="32" height="29" viewBox="0 0 32 29" fill="none" xmlns="http://www.w3.org/2000/svg">
<path d="M15.5588 5.33175L16 6.1595L16.4412 5.33176C16.9505 4.37632 17.8071 3.08044 19.0792 2.07051C20.3971 1.02424 21.8803 0.5 23.5 0.5C28.0204 0.5 31.5 4.29304 31.5 9.46439C31.5 12.2293 30.4254 14.576 28.4689 16.9995C26.4997 19.4387 23.6727 21.914 20.211 24.9423L20.5117 25.2861L20.211 24.9423C19.0385 25.968 17.7078 27.1322 16.3242 28.3743L16.3241 28.3745C16.2329 28.4564 16.1179 28.5 16 28.5C15.8822 28.5 15.7672 28.4564 15.676 28.3745L15.6758 28.3742C14.2929 27.1329 12.9627 25.9691 11.7913 24.9444L11.7898 24.943L11.4745 25.3033L11.7898 24.943C8.32766 21.9143 5.50047 19.4389 3.53122 16.9996C1.57463 14.576 0.5 12.2293 0.5 9.46439C0.5 4.29304 3.97958 0.5 8.5 0.5C10.1197 0.5 11.6029 1.02424 12.9208 2.07051C14.1929 3.08044 15.0495 4.37626 15.5588 5.33175Z" stroke="white" stroke-opacity="0.7"/>
</svg>
