<svg width="30" height="28" viewBox="0 0 30 28" fill="none" xmlns="http://www.w3.org/2000/svg">
<path opacity="0.7" d="M29.4824 10.7899L29.4824 10.79C29.5241 10.9154 29.4907 11.0554 29.3895 11.1519L29.3895 11.1519L22.6594 17.5702L22.4658 17.7548L22.512 18.0184L24.1008 27.0809C24.1008 27.0809 24.1008 27.081 24.1008 27.081C24.1235 27.2102 24.0702 27.3455 23.9539 27.4282C23.8361 27.5119 23.6773 27.5237 23.5466 27.4565L15.2287 23.1777L15 23.06L14.7713 23.1777L6.45293 27.4566L6.45285 27.4566C6.39678 27.4855 6.33506 27.5 6.27278 27.5C6.19141 27.5 6.11187 27.4752 6.04575 27.4283C5.92943 27.3455 5.87629 27.2103 5.89895 27.0811L5.89897 27.0811L7.48732 18.0183L7.5335 17.7548L7.33992 17.5702L0.610569 11.152L0.610525 11.152C0.509291 11.0554 0.475867 10.9154 0.517568 10.7899L0.517586 10.7898C0.559695 10.663 0.675055 10.5631 0.822816 10.5421L0.822892 10.5421L10.1229 9.21979L10.3813 9.18304L10.4989 8.94996L14.6583 0.704522L14.2119 0.479327L14.6583 0.704518C14.7195 0.583268 14.85 0.5 15 0.5C15.1501 0.5 15.2806 0.58329 15.3417 0.704448L15.3417 0.704515L19.501 8.94996L19.6185 9.18304L19.877 9.21979L29.1771 10.5421L29.1772 10.5421C29.325 10.5631 29.4402 10.6629 29.4824 10.7899Z" stroke="white"/>
</svg>
